<svg width="17" height="16" viewBox="0 0 17 16" fill="none" xmlns="http://www.w3.org/2000/svg">
    <g clip-path="url(#clip0_2586_2343)">
        <g filter="url(#filter0_d_2586_2343)">
            <path fill-rule="evenodd" clip-rule="evenodd" d="M10.7857 3.4398C10.7923 3.13326 10.714 2.83086 10.5594 2.56608C10.4048 2.30129 10.18 2.08444 9.9098 1.93952C9.6396 1.7946 9.33457 1.72726 9.02846 1.74496C8.72236 1.76266 8.42713 1.8647 8.17543 2.0398L8.172 2.04209L3.748 5.14837H2.21429C1.27714 5.14837 0.5 5.92552 0.5 6.86266V9.14837C0.5 10.0855 1.27714 10.8627 2.21429 10.8627H3.74457L8.06457 13.9667L8.07257 13.9724C9.18114 14.7404 10.756 13.9449 10.7857 12.5895V3.4398ZM16.2486 5.82837C16.4091 5.98909 16.4992 6.20694 16.4992 6.43409C16.4992 6.66123 16.4091 6.87909 16.2486 7.0398L15.284 8.00552L16.2486 8.97123C16.4 9.13372 16.4824 9.34863 16.4785 9.57068C16.4746 9.79274 16.3846 10.0046 16.2276 10.1617C16.0705 10.3187 15.8587 10.4087 15.6366 10.4126C15.4145 10.4165 15.1996 10.3341 15.0371 10.1827L14.0714 9.21809L13.1057 10.1827C13.0272 10.2669 12.9326 10.3344 12.8275 10.3813C12.7223 10.4281 12.6088 10.4533 12.4937 10.4553C12.3787 10.4574 12.2643 10.4362 12.1576 10.3931C12.0509 10.35 11.9539 10.2858 11.8725 10.2044C11.7911 10.123 11.727 10.0261 11.6839 9.91934C11.6408 9.81261 11.6196 9.69829 11.6216 9.58321C11.6236 9.46812 11.6488 9.35461 11.6957 9.24947C11.7425 9.14433 11.8101 9.0497 11.8943 8.97123L12.8589 8.00552L11.8943 7.0398C11.7429 6.87732 11.6605 6.66241 11.6644 6.44035C11.6683 6.21829 11.7582 6.00642 11.9153 5.84938C12.0723 5.69233 12.2842 5.60238 12.5063 5.59846C12.7283 5.59454 12.9432 5.67697 13.1057 5.82837L14.0714 6.79294L15.0371 5.82837C15.1979 5.66786 15.4157 5.5777 15.6429 5.5777C15.87 5.5777 16.0879 5.66786 16.2486 5.82837Z" fill="white"/>
        </g>
    </g>
    <defs>
        <filter id="filter0_d_2586_2343" x="0.5" y="1.74219" width="17.0667" height="13.5979" filterUnits="userSpaceOnUse" color-interpolation-filters="sRGB">
            <feFlood flood-opacity="0" result="BackgroundImageFix"/>
            <feColorMatrix in="SourceAlpha" type="matrix" values="0 0 0 0 0 0 0 0 0 0 0 0 0 0 0 0 0 0 127 0" result="hardAlpha"/>
            <feOffset dx="0.533333" dy="0.533333"/>
            <feGaussianBlur stdDeviation="0.266667"/>
            <feComposite in2="hardAlpha" operator="out"/>
            <feColorMatrix type="matrix" values="0 0 0 0 0 0 0 0 0 0 0 0 0 0 0 0 0 0 0.25 0"/>
            <feBlend mode="normal" in2="BackgroundImageFix" result="effect1_dropShadow_2586_2343"/>
            <feBlend mode="normal" in="SourceGraphic" in2="effect1_dropShadow_2586_2343" result="shape"/>
        </filter>
        <clipPath id="clip0_2586_2343">
            <rect width="16" height="16" fill="white" transform="translate(0.5)"/>
        </clipPath>
    </defs>
</svg>
