<svg width="17" height="16" viewBox="0 0 17 16" fill="none" xmlns="http://www.w3.org/2000/svg">
<path d="M4.67188 3.37146H6.3862L7.07193 2H10.5006L11.1863 3.37146H12.9006V8.85729H4.67188V3.37146Z" stroke="#475467" stroke-linecap="round" stroke-linejoin="round"/>
<path d="M8.78552 7.14135C9.54295 7.14135 10.157 6.52733 10.157 5.76989C10.157 5.01246 9.54295 4.39844 8.78552 4.39844C8.02808 4.39844 7.41406 5.01246 7.41406 5.76989C7.41406 6.52733 8.02808 7.14135 8.78552 7.14135Z" stroke="#475467" stroke-linecap="round" stroke-linejoin="round"/>
<path d="M8.78697 12.6282C4.99969 12.6282 1.92969 11.0932 1.92969 9.19958C1.92969 8.71203 2.13335 8.24813 2.50021 7.82812M8.78697 12.6282L7.41552 11.2568M8.78697 12.6282L7.41552 13.9997M11.5299 12.343C13.9519 11.8139 15.6443 10.6053 15.6443 9.19958C15.6443 8.71203 15.4406 8.24813 15.0737 7.82812" stroke="#475467" stroke-linecap="round" stroke-linejoin="round"/>
</svg>
