<svg width="15" height="16" viewBox="0 0 15 16" fill="none" xmlns="http://www.w3.org/2000/svg">
    <path d="M13.5 2.75C13.6989 2.75 13.8897 2.82902 14.0303 2.96967C14.171 3.11032 14.25 3.30109 14.25 3.5C14.25 3.69891 14.171 3.88968 14.0303 4.03033C13.8897 4.17098 13.6989 4.25 13.5 4.25H12.75L12.7477 4.30325L12.048 14.1065C12.0211 14.4849 11.8517 14.8391 11.5741 15.0977C11.2965 15.3563 10.9311 15.5 10.5518 15.5H4.4475C4.0681 15.5 3.7028 15.3563 3.42516 15.0977C3.14753 14.8391 2.97819 14.4849 2.95125 14.1065L2.2515 4.304C2.25036 4.28602 2.24986 4.26801 2.25 4.25H1.5C1.30109 4.25 1.11032 4.17098 0.96967 4.03033C0.829018 3.88968 0.75 3.69891 0.75 3.5C0.75 3.30109 0.829018 3.11032 0.96967 2.96967C1.11032 2.82902 1.30109 2.75 1.5 2.75H13.5ZM11.2477 4.25H3.75225L4.44825 14H10.5518L11.2477 4.25ZM9 0.5C9.19891 0.5 9.38968 0.579018 9.53033 0.71967C9.67098 0.860322 9.75 1.05109 9.75 1.25C9.75 1.44891 9.67098 1.63968 9.53033 1.78033C9.38968 1.92098 9.19891 2 9 2H6C5.80109 2 5.61032 1.92098 5.46967 1.78033C5.32902 1.63968 5.25 1.44891 5.25 1.25C5.25 1.05109 5.32902 0.860322 5.46967 0.71967C5.61032 0.579018 5.80109 0.5 6 0.5H9Z" fill="#101828"/>
</svg>
