<svg width="21" height="20" viewBox="0 0 21 20" fill="none" xmlns="http://www.w3.org/2000/svg">
    <g clip-path="url(#clip0_2586_1919)" filter="url(#filter0_d_2586_1919)">
        <path d="M8.59188 15.9602C8.48956 15.917 8.40453 15.841 8.35021 15.7441C8.29589 15.6472 8.27537 15.535 8.29188 15.4252L9.20188 9.50018H6.78688C6.71032 9.50224 6.63431 9.48668 6.56471 9.45471C6.49511 9.42274 6.43379 9.3752 6.38548 9.31578C6.33716 9.25635 6.30314 9.18661 6.28605 9.11196C6.26896 9.0373 6.26924 8.95971 6.28689 8.88518L7.78688 2.38518C7.81328 2.27331 7.87741 2.17396 7.96848 2.10384C8.05954 2.03371 8.17199 1.99711 8.28688 2.00018H13.2869C13.3616 1.99992 13.4354 2.01641 13.5029 2.04842C13.5704 2.08044 13.6298 2.12717 13.6769 2.18518C13.7246 2.24384 13.7584 2.31257 13.7757 2.38619C13.793 2.4598 13.7934 2.53639 13.7769 2.61018L12.9119 6.50018H15.2869C15.3806 6.49999 15.4725 6.52614 15.552 6.57565C15.6316 6.62516 15.6957 6.69603 15.7369 6.78018C15.7727 6.86095 15.7865 6.94977 15.7768 7.0376C15.7672 7.12543 15.7344 7.20913 15.6819 7.28018L9.18188 15.7802C9.13795 15.8453 9.0793 15.8992 9.01067 15.9374C8.94205 15.9756 8.86538 15.9971 8.78688 16.0002C8.71998 15.9989 8.65388 15.9854 8.59188 15.9602ZM11.6619 7.50018L12.6619 3.00018H8.68688L7.41689 8.50018H10.3719L9.57688 13.6402L14.2869 7.50018H11.6619Z" fill="#475467"/>
        <line y1="-0.75" x2="25.5825" y2="-0.75" transform="matrix(-0.707107 -0.707107 -0.707107 0.707107 19.7891 18)" stroke="#475467" stroke-width="1.5"/>
    </g>
    <defs>
        <filter id="filter0_d_2586_1919" x="0.789062" y="0" width="20" height="20" filterUnits="userSpaceOnUse" color-interpolation-filters="sRGB">
            <feFlood flood-opacity="0" result="BackgroundImageFix"/>
            <feColorMatrix in="SourceAlpha" type="matrix" values="0 0 0 0 0 0 0 0 0 0 0 0 0 0 0 0 0 0 127 0" result="hardAlpha"/>
            <feOffset dy="1"/>
            <feGaussianBlur stdDeviation="1"/>
            <feColorMatrix type="matrix" values="0 0 0 0 0.0627451 0 0 0 0 0.0941176 0 0 0 0 0.156863 0 0 0 0.05 0"/>
            <feBlend mode="normal" in2="BackgroundImageFix" result="effect1_dropShadow_2586_1919"/>
            <feBlend mode="normal" in="SourceGraphic" in2="effect1_dropShadow_2586_1919" result="shape"/>
        </filter>
        <clipPath id="clip0_2586_1919">
            <rect width="16" height="16" fill="white" transform="translate(2.78906 1)"/>
        </clipPath>
    </defs>
</svg>
