<svg width="13" height="12" viewBox="0 0 13 12" fill="none" xmlns="http://www.w3.org/2000/svg">
    <path d="M10.1641 1.59375H8.28906C8.11501 1.59375 7.94809 1.66289 7.82502 1.78596C7.70195 1.90903 7.63281 2.07595 7.63281 2.25V9.75C7.63281 9.92405 7.70195 10.091 7.82502 10.214C7.94809 10.3371 8.11501 10.4062 8.28906 10.4062H10.1641C10.3381 10.4062 10.505 10.3371 10.6281 10.214C10.7512 10.091 10.8203 9.92405 10.8203 9.75V2.25C10.8203 2.07595 10.7512 1.90903 10.6281 1.78596C10.505 1.66289 10.3381 1.59375 10.1641 1.59375ZM10.2578 9.75C10.2578 9.77486 10.2479 9.79871 10.2304 9.81629C10.2128 9.83387 10.1889 9.84375 10.1641 9.84375H8.28906C8.2642 9.84375 8.24035 9.83387 8.22277 9.81629C8.20519 9.79871 8.19531 9.77486 8.19531 9.75V2.25C8.19531 2.22514 8.20519 2.20129 8.22277 2.18371C8.24035 2.16613 8.2642 2.15625 8.28906 2.15625H10.1641C10.1889 2.15625 10.2128 2.16613 10.2304 2.18371C10.2479 2.20129 10.2578 2.22514 10.2578 2.25V9.75ZM5.28906 1.59375H3.41406C3.24001 1.59375 3.07309 1.66289 2.95002 1.78596C2.82695 1.90903 2.75781 2.07595 2.75781 2.25V9.75C2.75781 9.92405 2.82695 10.091 2.95002 10.214C3.07309 10.3371 3.24001 10.4062 3.41406 10.4062H5.28906C5.46311 10.4062 5.63003 10.3371 5.7531 10.214C5.87617 10.091 5.94531 9.92405 5.94531 9.75V2.25C5.94531 2.07595 5.87617 1.90903 5.7531 1.78596C5.63003 1.66289 5.46311 1.59375 5.28906 1.59375ZM5.38281 9.75C5.38281 9.77486 5.37294 9.79871 5.35535 9.81629C5.33777 9.83387 5.31393 9.84375 5.28906 9.84375H3.41406C3.3892 9.84375 3.36535 9.83387 3.34777 9.81629C3.33019 9.79871 3.32031 9.77486 3.32031 9.75V2.25C3.32031 2.22514 3.33019 2.20129 3.34777 2.18371C3.36535 2.16613 3.3892 2.15625 3.41406 2.15625H5.28906C5.31393 2.15625 5.33777 2.16613 5.35535 2.18371C5.37294 2.20129 5.38281 2.22514 5.38281 2.25V9.75Z" fill="white"/>
</svg>
