<svg width="17" height="16" viewBox="0 0 17 16" fill="none" xmlns="http://www.w3.org/2000/svg">
    <g clip-path="url(#clip0_2586_2385)">
        <g filter="url(#filter0_d_2586_2385)">
            <path d="M13.84 2.41752C15.4625 3.73502 16.5 5.75002 16.5 8.00502C16.5 10.26 15.4625 12.2725 13.84 13.5925C13.5825 13.8025 13.205 13.7625 12.995 13.505C12.785 13.2475 12.825 12.87 13.0825 12.66C14.4375 11.56 15.3 9.88502 15.3 8.00502C15.3 6.12502 14.4375 4.45002 13.0825 3.34752C12.825 3.13752 12.7875 2.76002 12.995 2.50252C13.2025 2.24502 13.5825 2.20752 13.84 2.41502V2.41752ZM12.3275 4.28002C13.4075 5.16002 14.1 6.50252 14.1 8.00502C14.1 9.50752 13.4075 10.85 12.3275 11.73C12.07 11.94 11.6925 11.9 11.4825 11.6425C11.2725 11.385 11.3125 11.0075 11.57 10.7975C12.3825 10.1375 12.9 9.13252 12.9 8.00502C12.9 6.87752 12.3825 5.87252 11.57 5.21002C11.3125 5.00002 11.275 4.62252 11.4825 4.36502C11.69 4.10752 12.07 4.07002 12.3275 4.27752V4.28002ZM10.815 6.14252C11.3525 6.58252 11.7 7.25252 11.7 8.00502C11.7 8.75752 11.3525 9.42752 10.815 9.86752C10.5575 10.0775 10.18 10.0375 9.97 9.78002C9.76 9.52252 9.8 9.14502 10.0575 8.93502C10.3275 8.71502 10.5 8.38002 10.5 8.00502C10.5 7.63002 10.3275 7.29502 10.0575 7.07252C9.8 6.86252 9.7625 6.48502 9.97 6.22752C10.1775 5.97002 10.5575 5.93252 10.815 6.14002V6.14252ZM8.0275 2.47502C8.315 2.60502 8.5 2.89002 8.5 3.20502V12.805C8.5 13.12 8.315 13.405 8.0275 13.535C7.74 13.665 7.4025 13.6125 7.1675 13.4025L3.795 10.405H2.1C1.2175 10.405 0.5 9.68752 0.5 8.80502V7.20502C0.5 6.32252 1.2175 5.60502 2.1 5.60502H3.795L7.1675 2.60752C7.4025 2.39752 7.74 2.34752 8.0275 2.47502Z" fill="white"/>
        </g>
    </g>
    <defs>
        <filter id="filter0_d_2586_2385" x="0.5" y="2.28125" width="17.0667" height="12.512" filterUnits="userSpaceOnUse" color-interpolation-filters="sRGB">
            <feFlood flood-opacity="0" result="BackgroundImageFix"/>
            <feColorMatrix in="SourceAlpha" type="matrix" values="0 0 0 0 0 0 0 0 0 0 0 0 0 0 0 0 0 0 127 0" result="hardAlpha"/>
            <feOffset dx="0.533333" dy="0.533333"/>
            <feGaussianBlur stdDeviation="0.266667"/>
            <feComposite in2="hardAlpha" operator="out"/>
            <feColorMatrix type="matrix" values="0 0 0 0 0 0 0 0 0 0 0 0 0 0 0 0 0 0 0.25 0"/>
            <feBlend mode="normal" in2="BackgroundImageFix" result="effect1_dropShadow_2586_2385"/>
            <feBlend mode="normal" in="SourceGraphic" in2="effect1_dropShadow_2586_2385" result="shape"/>
        </filter>
        <clipPath id="clip0_2586_2385">
            <rect width="16" height="16" fill="white" transform="translate(0.5)"/>
        </clipPath>
    </defs>
</svg>
