<svg width="20" height="20" viewBox="0 0 20 20" fill="none" xmlns="http://www.w3.org/2000/svg">
    <path fill-rule="evenodd" clip-rule="evenodd" d="M7.11372 2.66667C7.11372 2.48986 7.18395 2.32029 7.30898 2.19526C7.434 2.07024 7.60357 2 7.78038 2H12.2248C12.4016 2 12.5712 2.07024 12.6962 2.19526C12.8213 2.32029 12.8915 2.48986 12.8915 2.66667C12.8915 2.84348 12.8213 3.01305 12.6962 3.13807C12.5712 3.2631 12.4016 3.33333 12.2248 3.33333H7.78038C7.60357 3.33333 7.434 3.2631 7.30898 3.13807C7.18395 3.01305 7.11372 2.84348 7.11372 2.66667ZM8.18749 4.22222H11.8168C13.0346 4.22222 13.9982 4.22222 14.7679 4.30044C15.5582 4.38044 16.2168 4.54933 16.7928 4.93422C17.2533 5.24178 17.6497 5.63822 17.9573 6.09867C18.3422 6.67467 18.5102 7.33422 18.591 8.12267C18.6693 8.89333 18.6693 9.85778 18.6693 11.0756V11.1484C18.6693 12.3653 18.6693 13.3298 18.591 14.0996C18.511 14.8889 18.3422 15.5476 17.9582 16.1236C17.649 16.5837 17.2532 16.9792 16.7928 17.288C16.2168 17.6738 15.5573 17.8418 14.7688 17.9218C13.999 18 13.0346 18 11.8177 18H8.18749C6.9706 18 6.00616 18 5.23638 17.9218C4.44705 17.8418 3.78838 17.6729 3.21238 17.2889C2.75222 16.9798 2.3567 16.584 2.04794 16.1236C1.66216 15.5476 1.49416 14.888 1.41416 14.0996C1.33594 13.3298 1.33594 12.3653 1.33594 11.1484V11.0729C1.33594 9.856 1.33594 8.89244 1.41416 8.12178C1.49416 7.33333 1.66305 6.67467 2.04705 6.09867C2.3559 5.63859 2.75141 5.24307 3.21149 4.93422C3.78927 4.54933 4.44705 4.38133 5.23638 4.30044C6.00616 4.22222 6.9706 4.22222 8.18749 4.22222ZM5.37149 5.62667C4.68705 5.69689 4.27372 5.82844 3.95283 6.04267C3.6383 6.25447 3.36783 6.52524 3.15638 6.84C2.94216 7.16 2.80972 7.57422 2.74038 8.25689C2.66927 8.952 2.66927 9.848 2.66927 11.1102V11.1111C2.66927 12.3733 2.66927 13.2702 2.74038 13.9644C2.8106 14.6489 2.94216 15.0622 3.15638 15.3831C3.36705 15.6978 3.63816 15.9698 3.95283 16.1796C4.27372 16.3938 4.68794 16.5262 5.37149 16.5956C6.06572 16.6667 6.9626 16.6667 8.22483 16.6667H11.7804C13.0426 16.6667 13.9395 16.6667 14.6337 16.5956C15.3182 16.5253 15.7315 16.3938 16.0524 16.1796C16.367 15.9689 16.639 15.6978 16.8488 15.3831C17.063 15.0622 17.1955 14.648 17.2648 13.9644C17.3359 13.2702 17.3359 12.3733 17.3359 11.1111C17.3359 9.84889 17.3359 8.952 17.2648 8.25778C17.1946 7.57333 17.063 7.16 16.8488 6.84C16.6371 6.52516 16.3663 6.25438 16.0515 6.04267C15.7315 5.82844 15.3173 5.696 14.6337 5.62756C13.9386 5.55644 13.0426 5.55644 11.7804 5.55644H8.22483C6.9626 5.55644 6.06572 5.55556 5.37149 5.62667ZM10.0026 9.11111C9.47217 9.11111 8.96346 9.32183 8.58839 9.6969C8.21332 10.072 8.0026 10.5807 8.0026 11.1111C8.0026 11.6415 8.21332 12.1503 8.58839 12.5253C8.96346 12.9004 9.47217 13.1111 10.0026 13.1111C10.533 13.1111 11.0417 12.9004 11.4168 12.5253C11.7919 12.1503 12.0026 11.6415 12.0026 11.1111C12.0026 10.5807 11.7919 10.072 11.4168 9.6969C11.0417 9.32183 10.533 9.11111 10.0026 9.11111ZM6.66927 11.1111C6.66927 10.2271 7.02046 9.37921 7.64558 8.75409C8.2707 8.12897 9.11855 7.77778 10.0026 7.77778C10.8867 7.77778 11.7345 8.12897 12.3596 8.75409C12.9847 9.37921 13.3359 10.2271 13.3359 11.1111C13.3359 11.9952 12.9847 12.843 12.3596 13.4681C11.7345 14.0933 10.8867 14.4444 10.0026 14.4444C9.11855 14.4444 8.2707 14.0933 7.64558 13.4681C7.02046 12.843 6.66927 11.9952 6.66927 11.1111ZM14.2248 8.44444C14.2248 8.26763 14.2951 8.09806 14.4201 7.97304C14.5451 7.84802 14.7147 7.77778 14.8915 7.77778H15.3359C15.5127 7.77778 15.6823 7.84802 15.8073 7.97304C15.9324 8.09806 16.0026 8.26763 16.0026 8.44444C16.0026 8.62126 15.9324 8.79082 15.8073 8.91585C15.6823 9.04087 15.5127 9.11111 15.3359 9.11111H14.8915C14.7147 9.11111 14.5451 9.04087 14.4201 8.91585C14.2951 8.79082 14.2248 8.62126 14.2248 8.44444Z" fill="#858E99"/>
</svg>
