<svg width="57" height="56" viewBox="0 0 57 56" fill="none" xmlns="http://www.w3.org/2000/svg">
    <path fill-rule="evenodd" clip-rule="evenodd" d="M51.7891 28C51.7891 34.1 49.3659 39.9501 45.0525 44.2635C40.7392 48.5768 34.889 51 28.7891 51C22.6891 51 16.8389 48.5768 12.5256 44.2635C8.21227 39.9501 5.78906 34.1 5.78906 28C5.78906 21.9 8.21227 16.0499 12.5256 11.7365C16.8389 7.42321 22.6891 5 28.7891 5C34.889 5 40.7392 7.42321 45.0525 11.7365C49.3659 16.0499 51.7891 21.9 51.7891 28ZM20.1641 22.25C20.1641 21.4875 20.467 20.7562 21.0061 20.2171C21.5453 19.6779 22.2766 19.375 23.0391 19.375C23.8016 19.375 24.5328 19.6779 25.072 20.2171C25.6112 20.7562 25.9141 21.4875 25.9141 22.25V33.75C25.9141 34.5125 25.6112 35.2438 25.072 35.7829C24.5328 36.3221 23.8016 36.625 23.0391 36.625C22.2766 36.625 21.5453 36.3221 21.0061 35.7829C20.467 35.2438 20.1641 34.5125 20.1641 33.75V22.25ZM34.5391 19.375C33.7766 19.375 33.0453 19.6779 32.5061 20.2171C31.967 20.7562 31.6641 21.4875 31.6641 22.25V33.75C31.6641 34.5125 31.967 35.2438 32.5061 35.7829C33.0453 36.3221 33.7766 36.625 34.5391 36.625C35.3016 36.625 36.0328 36.3221 36.572 35.7829C37.1112 35.2438 37.4141 34.5125 37.4141 33.75V22.25C37.4141 21.4875 37.1112 20.7562 36.572 20.2171C36.0328 19.6779 35.3016 19.375 34.5391 19.375Z" fill="#667085"/>
</svg>
